<?xml version="1.0" encoding="utf-8"?><svg fill="none" viewBox="0 0 800 800" xmlns="http://www.w3.org/2000/svg"><defs /><g transform="matrix(1,0,0,1,0,0)" visibility="hidden" id="Group"><animate repeatCount="indefinite" begin="3.2s" calcMode="discrete" fill="freeze" dur="0.1s" values="visible; hidden" keyTimes="0; 1" attributeName="visibility" /></g><g transform="matrix(1,0,0,1,0,0)" visibility="hidden" id="Group"><animate repeatCount="indefinite" begin="3.3s" calcMode="discrete" fill="freeze" dur="0.1s" values="visible; visible" keyTimes="0; 1" attributeName="visibility" /></g><g transform="matrix(1,0,0,1,0,0)" visibility="hidden" id="Group"><animate repeatCount="indefinite" begin="3.1s" calcMode="discrete" fill="freeze" dur="0.1s" values="visible; hidden" keyTimes="0; 1" attributeName="visibility" /></g><g transform="matrix(1,0,0,1,0,0)" visibility="hidden" id="Group"><animate repeatCount="indefinite" begin="3s" calcMode="discrete" fill="freeze" dur="0.1s" values="visible; hidden" keyTimes="0; 1" attributeName="visibility" /></g><g transform="matrix(1,0,0,1,0,0)" visibility="hidden" id="Group"><animate repeatCount="indefinite" begin="2.9s" calcMode="discrete" fill="freeze" dur="0.1s" values="visible; hidden" keyTimes="0; 1" attributeName="visibility" /></g><g transform="matrix(1,0,0,1,0,0)" visibility="hidden" id="Group"><animate repeatCount="indefinite" begin="2.8s" calcMode="discrete" fill="freeze" dur="0.1s" values="visible; hidden" keyTimes="0; 1" attributeName="visibility" /></g><g transform="matrix(1,0,0,1,0,0)" visibility="hidden" id="Group"><animate repeatCount="indefinite" begin="2.7s" calcMode="discrete" fill="freeze" dur="0.1s" values="visible; hidden" keyTimes="0; 1" attributeName="visibility" /></g><g transform="matrix(1,0,0,1,0,0)" visibility="hidden" id="Group"><animate repeatCount="indefinite" begin="2.6s" calcMode="discrete" fill="freeze" dur="0.1s" values="visible; hidden" keyTimes="0; 1" attributeName="visibility" /></g><g transform="matrix(1,0,0,1,0,0)" visibility="hidden" id="Group"><animate repeatCount="indefinite" begin="2.5s" calcMode="discrete" fill="freeze" dur="0.1s" values="visible; hidden" keyTimes="0; 1" attributeName="visibility" /></g><g transform="matrix(1,0,0,1,0,0)" visibility="hidden" id="Group"><animate repeatCount="indefinite" begin="2.4s" calcMode="discrete" fill="freeze" dur="0.1s" values="visible; hidden" keyTimes="0; 1" attributeName="visibility" /></g><g transform="matrix(1,0,0,1,0,0)" visibility="hidden" id="Group"><animate repeatCount="indefinite" begin="2.3s" calcMode="discrete" fill="freeze" dur="0.1s" values="visible; hidden" keyTimes="0; 1" attributeName="visibility" /></g><g transform="matrix(1,0,0,1,0,0)" visibility="hidden" id="Group"><animate repeatCount="indefinite" begin="2.2s" calcMode="discrete" fill="freeze" dur="0.1s" values="visible; hidden" keyTimes="0; 1" attributeName="visibility" /></g><g transform="matrix(1,0,0,1,0,0)" visibility="hidden" id="Group"><animate repeatCount="indefinite" begin="2.1s" calcMode="discrete" fill="freeze" dur="0.1s" values="visible; hidden" keyTimes="0; 1" attributeName="visibility" /></g><g transform="matrix(1,0,0,1,0,0)" visibility="hidden" id="Group"><animate repeatCount="indefinite" begin="2s" calcMode="discrete" fill="freeze" dur="0.1s" values="visible; hidden" keyTimes="0; 1" attributeName="visibility" /></g><g transform="matrix(1,0,0,1,0,0)" visibility="hidden" id="Group"><animate repeatCount="indefinite" begin="1.9s" calcMode="discrete" fill="freeze" dur="0.1s" values="visible; hidden" keyTimes="0; 1" attributeName="visibility" /></g><g transform="matrix(1,0,0,1,0,0)" visibility="hidden" id="Group"><animate repeatCount="indefinite" begin="1.8s" calcMode="discrete" fill="freeze" dur="0.1s" values="visible; hidden" keyTimes="0; 1" attributeName="visibility" /></g><g transform="matrix(1,0,0,1,0,0)" visibility="hidden" id="Group"><animate repeatCount="indefinite" begin="1.7s" calcMode="discrete" fill="freeze" dur="0.1s" values="visible; hidden" keyTimes="0; 1" attributeName="visibility" /></g><g transform="matrix(1,0,0,1,0,0)" visibility="hidden" id="Group"><animate repeatCount="indefinite" begin="1.5s" calcMode="discrete" fill="freeze" dur="0.1s" values="visible; hidden" keyTimes="0; 1" attributeName="visibility" /></g><g transform="matrix(1,0,0,1,0,0)" visibility="hidden" id="Group"><animate repeatCount="indefinite" begin="1.6s" calcMode="discrete" fill="freeze" dur="0.1s" values="visible; hidden" keyTimes="0; 1" attributeName="visibility" /></g><g transform="matrix(1,0,0,1,0,0)" visibility="hidden" id="Group"><animate repeatCount="indefinite" begin="1.4s" calcMode="discrete" fill="freeze" dur="0.1s" values="visible; hidden" keyTimes="0; 1" attributeName="visibility" /></g><g transform="matrix(1,0,0,1,0,0)" visibility="hidden" id="Group"><animate repeatCount="indefinite" begin="1.3s" calcMode="discrete" fill="freeze" dur="0.1s" values="visible; hidden" keyTimes="0; 1" attributeName="visibility" /></g><g transform="matrix(1,0,0,1,0,0)" visibility="hidden" id="Group"><animate repeatCount="indefinite" begin="1.2s" calcMode="discrete" fill="freeze" dur="0.1s" values="visible; hidden" keyTimes="0; 1" attributeName="visibility" /></g><g transform="matrix(1,0,0,1,0,0)" visibility="hidden" id="Group"><animate repeatCount="indefinite" begin="1.1s" calcMode="discrete" fill="freeze" dur="0.1s" values="visible; hidden" keyTimes="0; 1" attributeName="visibility" /></g><g transform="matrix(1,0,0,1,0,0)" visibility="hidden" id="Group"><animate repeatCount="indefinite" begin="0.9s" calcMode="discrete" fill="freeze" dur="0.1s" values="visible; hidden" keyTimes="0; 1" attributeName="visibility" /></g><g transform="matrix(1,0,0,1,0,0)" visibility="hidden" id="Group"><animate repeatCount="indefinite" begin="1s" calcMode="discrete" fill="freeze" dur="0.1s" values="visible; hidden" keyTimes="0; 1" attributeName="visibility" /></g><g transform="matrix(1,0,0,1,0,0)" visibility="hidden" id="Group"><animate repeatCount="indefinite" begin="0.8s" calcMode="discrete" fill="freeze" dur="0.1s" values="visible; hidden" keyTimes="0; 1" attributeName="visibility" /></g><g transform="matrix(1,0,0,1,0,0)" visibility="hidden" id="Group"><animate repeatCount="indefinite" begin="0.7s" calcMode="discrete" fill="freeze" dur="0.1s" values="visible; hidden" keyTimes="0; 1" attributeName="visibility" /></g><g transform="matrix(1,0,0,1,0,0)" visibility="hidden" id="Group"><animate repeatCount="indefinite" begin="0.6s" calcMode="discrete" fill="freeze" dur="0.1s" values="visible; hidden" keyTimes="0; 1" attributeName="visibility" /></g><g transform="matrix(1,0,0,1,0,0)" visibility="hidden" id="Group"><animate repeatCount="indefinite" begin="0.5s" calcMode="discrete" fill="freeze" dur="0.1s" values="visible; hidden" keyTimes="0; 1" attributeName="visibility" /></g><g transform="matrix(1,0,0,1,0,0)" visibility="hidden" id="Group"><animate repeatCount="indefinite" begin="0.4s" calcMode="discrete" fill="freeze" dur="0.1s" values="visible; hidden" keyTimes="0; 1" attributeName="visibility" /></g><g transform="matrix(1,0,0,1,0,0)" visibility="hidden" id="Group"><animate repeatCount="indefinite" begin="0.3s" calcMode="discrete" fill="freeze" dur="0.1s" values="visible; hidden" keyTimes="0; 1" attributeName="visibility" /></g><g transform="matrix(1,0,0,1,0,0)" visibility="hidden" id="Group"><animate repeatCount="indefinite" begin="0.2s" calcMode="discrete" fill="freeze" dur="0.1s" values="visible; hidden" keyTimes="0; 1" attributeName="visibility" /></g><g transform="matrix(1,0,0,1,0,0)" visibility="hidden" id="Group"><animate repeatCount="indefinite" begin="0.1s" calcMode="discrete" fill="freeze" dur="0.1s" values="visible; hidden" keyTimes="0; 1" attributeName="visibility" /></g><g transform="matrix(1,0,0,1,0,0)" id="Group"><animate repeatCount="indefinite" begin="0s" calcMode="discrete" fill="freeze" dur="0.1s" values="visible; hidden" keyTimes="0; 1" attributeName="visibility" /></g></svg>